<?xml version="1.0" encoding="UTF-8" standalone="no"?>
<svg
   width="150"
   height="150"
   viewBox="0 0 150 150"
   version="1.1"
   id="svg2"
   xml:space="preserve"
   xmlns="http://www.w3.org/2000/svg"
   xmlns:svg="http://www.w3.org/2000/svg">
  <rect
     width="150"
     height="150"
     x="0"
     y="0"
     style="fill:#cccccc;stroke:none;fill-opacity:1"
     id="rect1" />
  <path
     id="avatar"
     style="fill:#ffffff;fill-opacity:1;stroke:none;stroke-width:0.637546"
     d="M 75 10.378906 A 5 5 0 0 0 70 15.378906 A 5 5 0 0 0 73 19.960938 L 73 29.378906 L 56.511719 29.378906 C 50.860507 29.378906 46.310547 33.928866 46.310547 39.580078 L 46.310547 70.179688 C 46.310547 75.8309 50.860507 80.382813 56.511719 80.382812 L 93.488281 80.382812 C 99.139493 80.382812 103.68945 75.8309 103.68945 70.179688 L 103.68945 39.580078 C 103.68945 33.928866 99.139493 29.378906 93.488281 29.378906 L 77 29.378906 L 77 19.960938 A 5 5 0 0 0 80 15.378906 A 5 5 0 0 0 75 10.378906 z M 64.929688 42.658203 A 5.6954479 5.2044611 0 0 1 70.625 47.863281 A 5.6954479 5.2044611 0 0 1 64.929688 53.066406 A 5.6954479 5.2044611 0 0 1 59.234375 47.863281 A 5.6954479 5.2044611 0 0 1 64.929688 42.658203 z M 85.070312 42.658203 A 5.6954479 5.2044611 0 0 1 90.765625 47.863281 A 5.6954479 5.2044611 0 0 1 85.070312 53.066406 A 5.6954479 5.2044611 0 0 1 79.375 47.863281 A 5.6954479 5.2044611 0 0 1 85.070312 42.658203 z M 64.914062 61.617188 L 85.085938 61.617188 C 88.414411 61.617188 91.09375 63.771895 91.09375 66.449219 C 91.09375 69.126542 88.414411 71.283203 85.085938 71.283203 L 64.914062 71.283203 C 61.585589 71.283203 58.90625 69.126542 58.90625 66.449219 C 58.90625 63.771895 61.585589 61.617188 64.914062 61.617188 z M 59 82.326172 C 56.784 82.326172 55 83.61829 55 85.222656 L 55 86.669922 C 55 88.274287 56.784 89.566406 59 89.566406 L 91 89.566406 C 93.216 89.566406 95 88.274287 95 86.669922 L 95 85.222656 C 95 83.61829 93.216 82.326172 91 82.326172 L 59 82.326172 z M 46.199219 91.507812 C 37.396362 91.507812 30.310547 95.801969 30.310547 101.13281 L 30.310547 129.99805 C 30.310547 135.32889 37.396362 139.62109 46.199219 139.62109 L 103.80078 139.62109 C 112.60364 139.62109 119.68945 135.32889 119.68945 129.99805 L 119.68945 101.13281 C 119.68945 95.801968 112.60364 91.507812 103.80078 91.507812 L 46.199219 91.507812 z " />
  <!-- Antenna -->
  <!-- Avatar placeholder (face circle) -->
  <!-- Eyes -->
  <!-- Friendly smile -->
  <!-- Neck / base -->
  <g
     id="g6"
     transform="translate(1.8521633)" />
</svg>
